<?xml version="1.0" encoding="utf-8"?>
<!-- Generator: Adobe Illustrator 21.0.0, SVG Export Plug-In . SVG Version: 6.00 Build 0)  -->
<svg xmlns="http://www.w3.org/2000/svg" xmlns:xlink="http://www.w3.org/1999/xlink" version="1.1" id="Layer_1" x="0px" y="0px" viewBox="0 0 256 256" style="enable-background:new 0 0 256 256;" xml:space="preserve" width="512" height="512">
<style type="text/css">
	.st0{fill:#EA73FF;}
	.st1{fill:#6DCC6D;}
	.st2{fill:#EA73FF;}
	.st3{fill:#6D6C6B;}
	.st4{fill:#939190;}
	.st5{fill:#FFCD29;}
	.st6{fill:#F45D64;}
	.st7{fill:#231F20;}
</style>
<g id="Layer_33">
	<path class="st0" d="M72.2,142.5h41.5c5.5,0,10,4.5,10,10v91.2c0,5.5-4.5,10-10,10H72.2c-5.5,0-10-4.5-10-10v-91.2   C62.2,147,66.7,142.5,72.2,142.5z"/>
	<path class="st1" d="M99.6,160.1c5.8,2.6,9.6,8.4,9.6,14.8v46.3c0,6.4-3.7,12.2-9.6,14.8h24.1v-75.9L99.6,160.1z"/>
	<path class="st1" d="M76.8,221.3v-46.3c0-6.4,3.7-12.2,9.6-14.8H62.2V236h24.1C80.5,233.4,76.8,227.6,76.8,221.3z"/>
	<path class="st2" d="M109.2,174.9v46.3c0,9-7.3,16.2-16.2,16.2l0,0c-9,0-16.2-7.3-16.2-16.2v-46.3c0-9,7.3-16.2,16.2-16.2l0,0   C101.9,158.7,109.2,166,109.2,174.9z"/>
	<path class="st2" d="M68.3,132.2h49.4c1.5,0,2.7,1.2,2.7,2.7v4.9c0,1.5-1.2,2.7-2.7,2.7H68.3c-1.5,0-2.7-1.2-2.7-2.7v-4.9   C65.6,133.4,66.8,132.2,68.3,132.2z"/>
	<rect x="65.6" y="102.9" class="st0" width="54.8" height="29.3"/>
	<path class="st0" d="M109.8,88.5c-0.5-2.5-2.8-4.4-5.3-4.4H81.5c-2.6,0-4.8,1.8-5.3,4.4c-1.1,6.2-5,11.5-10.6,14.3h54.8   C114.8,100,110.9,94.7,109.8,88.5z"/>
	<path class="st3" d="M124,81.5h33.3c2,0,3.6,1.6,3.6,3.6v49.2c0,2-1.6,3.6-3.6,3.6H124c-2,0-3.6-1.6-3.6-3.6V85.1   C120.5,83.1,122.1,81.5,124,81.5z"/>
	<path class="st3" d="M163.1,73.1h-44.7c-3.7,0-6.7,3-6.7,6.7v14.4c1.9,3.7,4.9,6.8,8.7,8.7l0,0v29.3h-2.7c1.5,0,2.7,1.2,2.7,2.7   v4.9c0,1.5-1.2,2.7-2.7,2.7h-3.9c5.5,0,10,4.5,10,10v91.1c0,4.3-2.8,8.1-6.8,9.5c0.5,0.1,1,0.2,1.4,0.2h44.7c3.7,0,6.7-3,6.7-6.7   l0,0V79.8C169.7,76.1,166.7,73.1,163.1,73.1C163.1,73.1,163.1,73.1,163.1,73.1z"/>
	<rect x="128.7" y="81.5" class="st4" width="24" height="56.3"/>
	<path class="st2" d="M136.6,151.9h8.2c2.3,0,4.2,1.9,4.2,4.2v8.2c0,2.3-1.9,4.2-4.2,4.2h-8.2c-2.3,0-4.2-1.9-4.2-4.2V156   C132.4,153.7,134.3,151.9,136.6,151.9z"/>
	<path class="st4" d="M118.4,51.5h44.7c0.2,0,0.4,0,0.7,0v-2.3c0-3.6-2.9-6.6-6.6-6.6h-32.8c-3.6,0-6.6,2.9-6.6,6.6v2.3   C117.9,51.5,118.2,51.5,118.4,51.5z"/>
	<path class="st3" d="M148.8,2.3h-16.1c-2.2,0-4,1.8-4,4v36.4h24V6.3C152.7,4.1,151,2.3,148.8,2.3z"/>
	<path class="st0" d="M118.4,51.5h44.7c3.7,0,6.7,3,6.7,6.7v8.3c0,3.7-3,6.7-6.7,6.7h-44.7c-3.7,0-6.7-3-6.7-6.7v-8.3   C111.7,54.5,114.7,51.5,118.4,51.5z"/>
	<path class="st2" d="M193.8,105.4h-1.8v-1.8c0-1.4-1.1-2.5-2.5-2.5s-2.5,1.1-2.5,2.5v1.8h-1.8c-1.4,0-2.5,1.1-2.5,2.5   s1.1,2.5,2.5,2.5h1.8v1.8c0,1.4,1.1,2.5,2.5,2.5s2.5-1.1,2.5-2.5v-1.8h1.8c1.4,0,2.5-1.1,2.5-2.5S195.2,105.4,193.8,105.4   L193.8,105.4z"/>
	<path class="st5" d="M114.2,8.1c0-0.2-0.1-0.3-0.1-0.5c-0.1-0.1-0.1-0.3-0.2-0.4c-0.1-0.1-0.2-0.3-0.3-0.4c-1-0.9-2.5-0.9-3.5,0   c-0.1,0.1-0.2,0.2-0.3,0.4c-0.2,0.3-0.3,0.6-0.4,0.9c-0.1,0.3-0.1,0.7,0,1c0,0.2,0.1,0.3,0.1,0.5c0.1,0.2,0.1,0.3,0.2,0.4   c0.1,0.1,0.2,0.3,0.3,0.4c1,1,2.5,1,3.5,0c0,0,0,0,0,0c0.1-0.1,0.2-0.2,0.3-0.4c0.1-0.1,0.2-0.3,0.2-0.4c0.1-0.1,0.1-0.3,0.1-0.5   C114.2,8.8,114.2,8.4,114.2,8.1z"/>
	<path class="st1" d="M183.2,127.5c0-0.2-0.1-0.3-0.1-0.5c-0.1-0.1-0.1-0.3-0.2-0.4c-0.1-0.1-0.2-0.3-0.3-0.4c-1-0.9-2.5-0.9-3.5,0   c-0.1,0.1-0.2,0.2-0.3,0.4c-0.2,0.3-0.3,0.6-0.4,0.9c-0.1,0.3-0.1,0.7,0,1c0,0.2,0.1,0.3,0.1,0.5c0.1,0.2,0.1,0.3,0.2,0.4   c0.1,0.1,0.2,0.3,0.3,0.4c1,1,2.5,1,3.5,0c0,0,0,0,0,0c0.1-0.1,0.2-0.2,0.3-0.4c0.1-0.1,0.2-0.3,0.2-0.4c0.1-0.1,0.1-0.3,0.1-0.5   C183.3,128.2,183.3,127.8,183.2,127.5z"/>
	<path class="st6" d="M111.6,29.5c-4.1-0.8-7.2-4-8-8c0-0.1-0.1-0.2-0.2-0.2c-0.1,0-0.1,0.1-0.2,0.2c-0.8,4.1-4,7.2-8,8   c-0.1,0-0.2,0.1-0.2,0.2c0,0.1,0.1,0.1,0.2,0.2c4.1,0.8,7.2,4,8,8c0,0.1,0.1,0.2,0.2,0.2c0.1,0,0.1-0.1,0.2-0.2c0.8-4.1,4-7.2,8-8   c0.1,0,0.2-0.1,0.2-0.2C111.7,29.5,111.6,29.5,111.6,29.5z"/>
	<path class="st7" d="M163.1,75.6h-44.7c-5.1,0-9.2-4.1-9.2-9.2v-8.3c0-5.1,4.1-9.2,9.2-9.2h44.7c5.1,0,9.2,4.1,9.2,9.2v8.3   C172.2,71.5,168.1,75.6,163.1,75.6z M118.4,54c-2.3,0-4.2,1.9-4.2,4.2v8.3c0,2.3,1.9,4.2,4.2,4.2h44.7c2.3,0,4.2-1.9,4.2-4.2v-8.3   c0-2.3-1.9-4.2-4.2-4.2H118.4z"/>
	<path class="st7" d="M157.4,140.4H124c-3.4,0-6.1-2.7-6.1-6.1V85.1c0-3.4,2.7-6.1,6.1-6.1h33.4c3.3,0,6.1,2.7,6.1,6.1v49.2   C163.5,137.7,160.7,140.4,157.4,140.4z M124,84c-0.6,0-1.1,0.5-1.1,1.1v49.2c0,0.6,0.5,1.1,1.1,1.1h33.4c0.6,0,1.1-0.5,1.1-1.1   V85.1c0-0.6-0.5-1.1-1.1-1.1H124z"/>
	<path class="st7" d="M163.7,54c-0.1,0-0.2,0-0.2,0c-0.1,0-0.3,0-0.4,0h-44.7c-0.1,0-0.3,0-0.4,0c-1.4,0.1-2.6-0.9-2.7-2.2   c0-0.1,0-0.2,0-0.2v-2.3c0-5,4.1-9.1,9.1-9.1h32.8c5,0,9.1,4.1,9.1,9.1v2.3C166.2,52.9,165.1,54,163.7,54L163.7,54z M120.2,49h41   c-0.1-2.2-1.9-3.8-4.1-3.8h-32.8C122.1,45.1,120.4,46.8,120.2,49z"/>
	<path class="st7" d="M140.7,32.1c-1.4,0-2.5-1.1-2.5-2.5V14.3c0-1.4,1.1-2.5,2.5-2.5s2.5,1.1,2.5,2.5v15.3   C143.2,31,142.1,32.1,140.7,32.1z"/>
	<path class="st7" d="M152.7,45.1h-24c-1.4,0-2.5-1.1-2.5-2.5V6.3c0-3.6,2.9-6.5,6.5-6.5h16.1c3.6,0,6.5,2.9,6.5,6.5v36.4   C155.2,44,154.1,45.1,152.7,45.1z M131.2,40.1h19V6.3c0-0.8-0.7-1.5-1.5-1.5h-16.1c-0.8,0-1.5,0.7-1.5,1.5V40.1z"/>
	<path class="st7" d="M163.1,255.8h-44.7c-0.7,0-1.3-0.1-2-0.2c-1.3-0.3-2.2-1.6-1.9-3c0.2-0.9,0.8-1.5,1.6-1.8   c3.1-1,5.1-3.9,5.1-7.1v-91.1c0-4.1-3.4-7.5-7.5-7.5c-1.4,0-2.5-1.1-2.5-2.5s1.1-2.5,2.5-2.5h3.9c0.1,0,0.2-0.1,0.2-0.2v-4.9   c0-0.1-0.1-0.2-0.2-0.2c-1.4,0-2.5-1.1-2.5-2.5s1.1-2.5,2.5-2.5h0.2v-25.4c-3.6-2.2-6.5-5.3-8.4-9c-0.2-0.4-0.3-0.7-0.3-1.1V79.8   c0-5.1,4.1-9.2,9.2-9.2h44.7c5.1,0,9.2,4.1,9.2,9.2v166.9C172.2,251.7,168.1,255.8,163.1,255.8z M124,250.8h39   c2.3,0,4.2-1.9,4.2-4.2V79.8c0-2.3-1.9-4.2-4.2-4.2h-44.7c-2.3,0-4.2,1.9-4.2,4.2v13.7c1.7,3,4.2,5.4,7.2,7   c0.9,0.4,1.5,1.3,1.5,2.3v29.3c0,0.4-0.1,0.8-0.3,1.1c0.2,0.5,0.3,1.1,0.3,1.6v4.9c0,1.1-0.4,2.3-1.1,3.2c2.8,2.4,4.4,5.9,4.4,9.6   v91.2C126.3,246.2,125.5,248.7,124,250.8L124,250.8z"/>
	<path class="st7" d="M117.7,145H68.3c-2.9,0-5.2-2.3-5.2-5.2v-4.9c0-2.9,2.3-5.2,5.2-5.2h49.4c2.9,0,5.2,2.3,5.2,5.2v4.9   C122.9,142.7,120.6,145,117.7,145z M68.3,134.7c-0.1,0-0.2,0.1-0.2,0.2v4.9c0,0.1,0.1,0.2,0.2,0.2h49.4c0.1,0,0.2-0.1,0.2-0.2v-4.9   c0-0.1-0.1-0.2-0.2-0.2L68.3,134.7z"/>
	<path class="st7" d="M120.4,134.7H65.6c-1.4,0-2.5-1.1-2.5-2.5v-29.3c0-1.4,1.1-2.5,2.5-2.5h54.8c1.4,0,2.5,1.1,2.5,2.5v29.3   C122.9,133.6,121.8,134.7,120.4,134.7C120.4,134.7,120.4,134.7,120.4,134.7z M68.1,129.7h49.8v-24.3H68.1L68.1,129.7z"/>
	<path class="st7" d="M120.4,105.4H65.6c-1.4,0-2.5-1.1-2.5-2.5c0-1,0.6-1.9,1.5-2.3c4.8-2.5,8.2-7.1,9.2-12.5   c0.7-3.7,4-6.4,7.8-6.4h22.9c3.8,0,7.1,2.7,7.8,6.4l0,0c1,5.4,4.3,10,9.2,12.5c1.3,0.6,1.8,2,1.3,3.3   C122.3,104.8,121.4,105.4,120.4,105.4L120.4,105.4z M72.9,100.4H113c-2.9-3.2-4.9-7.1-5.7-11.4l0,0c-0.3-1.4-1.5-2.3-2.9-2.3H81.5   c-1.4,0-2.6,1-2.9,2.3C77.9,93.2,75.9,97.2,72.9,100.4z"/>
	<path class="st7" d="M113.7,256.2H72.2c-6.9,0-12.5-5.6-12.5-12.5v-91.1c0-6.9,5.6-12.5,12.5-12.5h41.5c6.9,0,12.5,5.6,12.5,12.5   v91.1C126.2,250.6,120.6,256.2,113.7,256.2z M72.2,145c-4.1,0-7.5,3.4-7.5,7.5v91.1c0,4.1,3.4,7.5,7.5,7.5h41.5   c4.1,0,7.5-3.4,7.5-7.5v-91.1c0-4.1-3.4-7.5-7.5-7.5H72.2z"/>
	<path class="st7" d="M123.8,238.5H99.6c-1.4,0-2.5-1.1-2.5-2.5c0-1,0.6-1.9,1.5-2.3c4.9-2.2,8.1-7.1,8.1-12.5v-46.3   c0-5.4-3.2-10.3-8.1-12.5c-1.3-0.6-1.8-2-1.3-3.3c0.4-0.9,1.3-1.5,2.3-1.5h24.1c1.4,0,2.5,1.1,2.5,2.5v75.9   C126.3,237.4,125.1,238.5,123.8,238.5z M107.1,233.5h14.2v-70.9h-14.2c3,3.4,4.6,7.8,4.6,12.3v46.3   C111.7,225.8,110.1,230.1,107.1,233.5z"/>
	<path class="st7" d="M86.3,238.5H62.2c-1.4,0-2.5-1.1-2.5-2.5v-75.9c0-1.4,1.1-2.5,2.5-2.5h24.1c1.4,0,2.5,1.1,2.5,2.5   c0,1-0.6,1.9-1.5,2.3c-4.9,2.2-8.1,7.1-8.1,12.5v46.3c0,5.4,3.2,10.3,8.1,12.5c1.3,0.6,1.8,2,1.3,3.3   C88.2,238,87.3,238.5,86.3,238.5L86.3,238.5z M64.7,233.5h14.2c-3-3.4-4.6-7.8-4.6-12.3v-46.3c0-4.5,1.6-8.9,4.6-12.3H64.7   L64.7,233.5z"/>
	<path class="st7" d="M97.3,206.2c-1.6,0-3.1-0.5-4.3-1.5c-2.9,2.4-7.2,2-9.6-0.9c-1-1.2-1.5-2.7-1.5-4.3v-7.1   c0-1.4,1.1-2.5,2.5-2.5h17.3c1.4,0,2.5,1.1,2.5,2.5v7.1C104.1,203.1,101.1,206.2,97.3,206.2z M95.5,199.4c0,1,0.8,1.8,1.8,1.8   c1,0,1.8-0.8,1.8-1.8c0,0,0,0,0,0v-4.6h-3.6L95.5,199.4z M86.9,194.7v4.6c0,1,0.8,1.8,1.8,1.8s1.8-0.8,1.8-1.8v-4.6H86.9z"/>
	<path class="st7" d="M101.6,187.6c-1.4,0-2.5-1.1-2.5-2.5v-2.8c0-3.4-2.7-6.1-6.1-6.1c-3.4,0-6.1,2.7-6.1,6.1v2.8   c0,1.4-1.1,2.5-2.5,2.5s-2.5-1.1-2.5-2.5v-2.8c0-6.1,5-11.1,11.1-11.1c6.1,0,11.1,5,11.1,11.1v2.8   C104.1,186.5,103,187.6,101.6,187.6C101.6,187.6,101.6,187.6,101.6,187.6z"/>
	<path class="st7" d="M93,225c-6.1,0-11.1-5-11.1-11.1v-2.8c0-1.4,1.1-2.5,2.5-2.5h17.3c1.4,0,2.5,1.1,2.5,2.5v2.8   C104.1,220,99.1,225,93,225z M86.8,213.6v0.3c0,3.4,2.7,6.1,6.1,6.1c3.4,0,6.1-2.7,6.1-6.1c0,0,0,0,0,0v-0.3H86.8z"/>
	<path class="st7" d="M93,240c-10.3,0-18.7-8.4-18.7-18.7v-46.3c0.1-10.3,8.5-18.7,18.9-18.6c10.2,0.1,18.5,8.4,18.6,18.6v46.3   C111.7,231.6,103.3,240,93,240z M93,161.2c-7.6,0-13.7,6.1-13.7,13.7v46.3c-0.1,7.6,6,13.8,13.6,13.8s13.8-6,13.8-13.6   c0-0.1,0-0.2,0-0.2v-46.3C106.7,167.4,100.6,161.2,93,161.2L93,161.2z"/>
	<path class="st7" d="M152.7,140.4h-24c-1.4,0-2.5-1.1-2.5-2.5V81.5c0-1.4,1.1-2.5,2.5-2.5h24c1.4,0,2.5,1.1,2.5,2.5v56.3   C155.2,139.3,154.1,140.4,152.7,140.4z M131.2,135.4h19V84h-19V135.4z"/>
	<path class="st7" d="M144.8,170.9h-8.2c-3.7,0-6.7-3-6.7-6.7V156c0-3.7,3-6.7,6.7-6.7h8.2c3.7,0,6.7,3,6.7,6.7v8.2   C151.5,167.9,148.5,170.9,144.8,170.9z M136.6,154.4c-0.9,0-1.7,0.8-1.7,1.7v8.2c0,0.9,0.8,1.7,1.7,1.7h8.2c0.9,0,1.7-0.8,1.7-1.7   V156c0-0.9-0.8-1.7-1.7-1.7H136.6z"/>
</g>
</svg>
